<svg width="16" height="16" viewBox="0 0 16 16" fill="none" xmlns="http://www.w3.org/2000/svg" style="enable-background:new 0 0 16 16;">
    <path fill-rule="evenodd" clip-rule="evenodd" d="M13.1501 2.256C11.7048 0.804667 9.78214 0.004 7.71881 0C3.49948 0 0.0608105 3.432 0.0528105 7.65133C0.0488105 9.69933 0.842144 11.626 2.28748 13.0773C3.73281 14.528 5.65614 15.3293 7.70481 15.3333H7.71948C11.9381 15.3333 15.3775 11.9007 15.3855 7.68067C15.3895 5.63333 14.5955 3.70667 13.1501 2.256ZM11.7195 8H8.05282V11.6667C8.05282 11.8507 7.90282 12 7.71948 12C7.53548 12 7.38615 11.8507 7.38615 11.6667V8H3.71948C3.53548 7.99933 3.38548 7.85067 3.38615 7.66667C3.38615 7.48333 3.53548 7.33333 3.71948 7.33333H7.38615V3.66667C7.38615 3.48267 7.53548 3.33333 7.71948 3.33333C7.90282 3.33333 8.05282 3.48267 8.05282 3.66667V7.33333H11.7195C11.9028 7.33333 12.0535 7.48267 12.0528 7.66667C12.0528 7.85067 11.9035 8 11.7195 8Z" fill="#0067C5"/>
</svg>
