<svg width="24" height="24" viewBox="0 0 24 24" fill="none" xmlns="http://www.w3.org/2000/svg">
    <path fill-rule="evenodd" clip-rule="evenodd" d="M23.5 24C23.776 24 24 23.776 24 23.5V0.5C24 0.224 23.776 0 23.5 0H0.5C0.224 0 0 0.224 0 0.5V23.5C0 23.776 0.224 24 0.5 24H23.5ZM23 1V23H1V1H23ZM5.5 10C5.372 10 5.244 9.951 5.146 9.854L3.146 7.854C2.951 7.659 2.951 7.342 3.146 7.147C3.341 6.952 3.658 6.952 3.853 7.147L5.5 8.793L10.146 4.147C10.341 3.952 10.658 3.952 10.853 4.147C11.048 4.342 11.048 4.659 10.853 4.854L5.853 9.854C5.756 9.951 5.628 10 5.5 10ZM5.146 18.854C5.244 18.951 5.372 19 5.5 19C5.628 19 5.756 18.951 5.853 18.854L10.853 13.854C11.048 13.659 11.048 13.342 10.853 13.147C10.658 12.952 10.341 12.952 10.146 13.147L5.5 17.793L3.853 16.147C3.658 15.952 3.341 15.952 3.146 16.147C2.951 16.342 2.951 16.659 3.146 16.854L5.146 18.854ZM20.5 9H12.5C12.224 9 12 8.776 12 8.5C12 8.224 12.224 8 12.5 8H20.5C20.776 8 21 8.224 21 8.5C21 8.776 20.776 9 20.5 9ZM12.5 18H20.5C20.776 18 21 17.776 21 17.5C21 17.224 20.776 17 20.5 17H12.5C12.224 17 12 17.224 12 17.5C12 17.776 12.224 18 12.5 18Z" fill="#3E3832"/>
</svg>
