<svg width="35" height="41" viewBox="0 0 35 41" fill="none" xmlns="http://www.w3.org/2000/svg">
<path fill-rule="evenodd" clip-rule="evenodd" d="M0.25 1C0.25 0.585786 0.585786 0.25 1 0.25H19.0594C19.2583 0.25 19.4491 0.329018 19.5897 0.46967L27.867 8.7469C28.0076 8.88755 28.0866 9.07832 28.0866 9.27723V21.6931H26.5866V10.0272H19.0594C18.6452 10.0272 18.3094 9.69144 18.3094 9.27723V1.75H1.75V34.8639H15.6733V36.3639H1C0.585786 36.3639 0.25 36.0281 0.25 35.6139V1ZM19.8094 2.81066L25.526 8.52723H19.8094V2.81066Z" fill="#0067C5"/>
<path fill-rule="evenodd" clip-rule="evenodd" d="M25.2593 22.7886L25.097 22.7902C22.6587 22.8329 20.3637 23.8185 18.6355 25.5657C16.8946 27.3256 15.9596 29.6294 16.0016 32.0534C16.0887 37.0702 20.0193 41.0001 24.9498 41.0001L25.1105 40.9985C30.2136 40.9106 34.2946 36.7544 34.2067 31.736C34.1197 26.7192 30.189 22.7886 25.2593 22.7886ZM24.7083 27.5386C24.7083 27.3201 24.8857 27.1427 25.1042 27.1427C25.3219 27.1427 25.5 27.3201 25.5 27.5386V33.0802C25.5 33.2987 25.3219 33.4761 25.1042 33.4761C24.8857 33.4761 24.7083 33.2987 24.7083 33.0802V27.5386ZM25.1184 36.6427C25.1137 36.6427 25.1089 36.6427 25.1042 36.6427C24.6727 36.6427 24.3196 36.2976 24.3125 35.8653C24.3046 35.4283 24.6529 35.0673 25.0899 35.0602C25.0947 35.0602 25.0994 35.0594 25.1042 35.0594C25.5356 35.0594 25.8879 35.4054 25.8958 35.8376C25.9037 36.2746 25.5546 36.6348 25.1184 36.6427Z" fill="#0067C5"/>
</svg>
