<svg width="36" height="42" viewBox="0 0 36 42" fill="none" xmlns="http://www.w3.org/2000/svg">
<path d="M15.6733 35.6139H1V1H19.0594M19.0594 1L27.3366 9.27723M19.0594 1V9.27723H27.3366M27.3366 9.27723V21.6931" stroke="#3E3832" stroke-width="1.5" stroke-linejoin="round"/>
<path fill-rule="evenodd" clip-rule="evenodd" d="M16.4016 32.1608C16.4896 37.2312 20.4616 41.2032 25.444 41.2032L25.6072 41.2017C30.7632 41.1112 34.8864 36.912 34.7984 31.8408C34.7096 26.7712 30.7392 22.8 25.7568 22.8L25.5928 22.8016C23.1288 22.8448 20.8088 23.84 19.0624 25.6064C17.304 27.3832 16.3592 29.712 16.4016 32.1608ZM25.6064 23.6016L25.7568 23.6C30.2984 23.6 33.9176 27.2256 33.9984 31.8544C34.0784 36.4848 30.308 40.3185 25.5928 40.4016L25.444 40.4032C20.9024 40.4032 17.2824 36.7768 17.2016 32.1472C17.1632 29.9152 18.0256 27.792 19.6312 26.1688C21.2304 24.552 23.352 23.6408 25.6064 23.6016ZM25.6 33.6C25.3792 33.6 25.2 33.4208 25.2 33.2V27.6C25.2 27.3792 25.3792 27.2 25.6 27.2C25.8208 27.2 26 27.3792 26 27.6V33.2C26 33.4208 25.8208 33.6 25.6 33.6ZM26.4 36C26.4 36.4419 26.0418 36.8 25.6 36.8C25.1582 36.8 24.8 36.4419 24.8 36C24.8 35.5582 25.1582 35.2 25.6 35.2C26.0418 35.2 26.4 35.5582 26.4 36Z" fill="#3E3832"/>
</svg>
