<svg width="35" height="41" viewBox="0 0 35 41" fill="none" xmlns="http://www.w3.org/2000/svg">
<path fill-rule="evenodd" clip-rule="evenodd" d="M0.25 1C0.25 0.585786 0.585786 0.25 1 0.25H19.0594C19.2583 0.25 19.4491 0.329018 19.5897 0.46967L27.867 8.7469C28.0076 8.88755 28.0866 9.07832 28.0866 9.27723V21.6931H26.5866V10.0272H19.0594C18.6452 10.0272 18.3094 9.69144 18.3094 9.27723V1.75H1.75V34.8639H15.6733V36.3639H1C0.585786 36.3639 0.25 36.0281 0.25 35.6139V1ZM19.8094 2.81066L25.526 8.52723H19.8094V2.81066Z" fill="#0067C5"/>
<path fill-rule="evenodd" clip-rule="evenodd" d="M26 23C21.0373 23 17 27.0373 17 32C17 36.9628 21.0373 41 26 41C30.9628 41 35 36.9628 35 32C35 27.0373 30.9628 23 26 23ZM30.4018 36.3785C30.26 36.533 30.0215 36.5398 29.8715 36.4018L25.3715 32.2768C25.2942 32.2048 25.25 32.1058 25.25 32V27.875C25.25 27.668 25.418 27.5 25.625 27.5C25.832 27.5 26 27.668 26 27.875V31.835L30.3785 35.8483C30.5315 35.9885 30.5413 36.2263 30.4018 36.3785Z" fill="#0067C5"/>
</svg>
