<svg width="35" height="41" viewBox="0 0 35 41" fill="none" xmlns="http://www.w3.org/2000/svg">
<path fill-rule="evenodd" clip-rule="evenodd" d="M0.25 1C0.25 0.585786 0.585786 0.25 1 0.25H19.0594C19.2583 0.25 19.4491 0.329018 19.5897 0.46967L27.867 8.7469C28.0076 8.88755 28.0866 9.07832 28.0866 9.27723V21.6931H26.5866V10.0272H19.0594C18.6452 10.0272 18.3094 9.69144 18.3094 9.27723V1.75H1.75V34.8639H15.6733V36.3639H1C0.585786 36.3639 0.25 36.0281 0.25 35.6139V1ZM19.8094 2.81066L25.526 8.52723H19.8094V2.81066Z" fill="#3E3832"/>
<path fill-rule="evenodd" clip-rule="evenodd" d="M26 41C21.0373 41 17 36.9628 17 32C17 27.0373 21.0373 23 26 23C30.9628 23 35 27.0373 35 32C35 36.9628 30.9628 41 26 41ZM26 23.75C21.4513 23.75 17.75 27.4513 17.75 32C17.75 36.5487 21.4513 40.25 26 40.25C30.5487 40.25 34.25 36.5487 34.25 32C34.25 27.4513 30.5487 23.75 26 23.75ZM29.8715 36.4018C29.9435 36.4678 30.0343 36.5 30.125 36.5C30.2263 36.5 30.3275 36.4587 30.4018 36.3785C30.5413 36.2255 30.5315 35.9885 30.3785 35.8483L26 31.835V27.875C26 27.668 25.832 27.5 25.625 27.5C25.418 27.5 25.25 27.668 25.25 27.875V32C25.25 32.105 25.2942 32.2055 25.3715 32.2767L29.8715 36.4018Z" fill="#3E3832"/>
</svg>
