<svg width="39" height="41" viewBox="0 0 39 41" fill="none" xmlns="http://www.w3.org/2000/svg">
<path d="M15.6733 35.6139H1V1H19.0594M19.0594 1L27.3366 9.27723M19.0594 1V9.27723H27.3366M27.3366 9.27723V21.6931" stroke="#3E3832" stroke-width="1.5" stroke-linejoin="round"/>
<path fill-rule="evenodd" clip-rule="evenodd" d="M24.9255 36.2828C25.0117 36.369 25.129 36.4166 25.25 36.4166H25.2747C25.404 36.4093 25.525 36.347 25.6075 36.2461L38.8992 19.7461C39.0577 19.549 39.0266 19.2603 38.8295 19.1017C38.6324 18.9431 38.3427 18.9743 38.1851 19.1714L25.2124 35.2735L20.9902 31.0514C20.8115 30.8726 20.5209 30.8726 20.3422 31.0514C20.1634 31.2301 20.1634 31.5207 20.3422 31.6995L24.9255 36.2828ZM17 32.2916C17 37.0931 20.9068 41 25.7083 41C30.5098 41 34.4167 37.0931 34.4167 32.2916C34.4167 31.6399 34.3424 30.9863 34.1976 30.3501C34.1408 30.1026 33.8896 29.9477 33.6485 30.0055C33.401 30.0623 33.247 30.308 33.3038 30.5545C33.434 31.1238 33.5 31.7086 33.5 32.2916C33.5 36.588 30.0048 40.0833 25.7083 40.0833C21.4119 40.0833 17.9167 36.588 17.9167 32.2916C17.9167 27.9952 21.4119 24.5 25.7083 24.5C26.9248 24.5 28.0898 24.7722 29.1715 25.3094C29.3988 25.423 29.6729 25.3295 29.7857 25.1031C29.8984 24.8767 29.8058 24.6017 29.5794 24.489C28.3694 23.8885 27.0668 23.5833 25.7083 23.5833C20.9068 23.5833 17 27.4901 17 32.2916Z" fill="#3E3832"/>
</svg>
