<svg width="35" height="41" viewBox="0 0 35 41" fill="none" xmlns="http://www.w3.org/2000/svg">
<path fill-rule="evenodd" clip-rule="evenodd" d="M0.25 1C0.25 0.585786 0.585786 0.25 1 0.25H19.0594C19.2583 0.25 19.4491 0.329018 19.5897 0.46967L27.867 8.7469C28.0076 8.88755 28.0866 9.07832 28.0866 9.27723V21.6931H26.5866V10.0272H19.0594C18.6452 10.0272 18.3094 9.69144 18.3094 9.27723V1.75H1.75V34.8639H15.6733V36.3639H1C0.585786 36.3639 0.25 36.0281 0.25 35.6139V1ZM19.8094 2.81066L25.526 8.52723H19.8094V2.81066Z" fill="#0067C5"/>
<path fill-rule="evenodd" clip-rule="evenodd" d="M25.2856 36.0685C25.3757 36.1586 25.4983 36.2084 25.6248 36.2084H25.6507C25.7858 36.2008 25.9123 36.1356 25.9986 36.0302L33.3874 26.8579C34.4039 28.3155 35 30.0882 35 32C35 36.9706 30.9706 41 26 41C21.0294 41 17 36.9706 17 32C17 27.0294 21.0294 23 26 23C28.7049 23 31.1312 24.1933 32.781 26.0822L25.5855 35.0134L21.1715 30.5994C20.9847 30.4125 20.6809 30.4125 20.494 30.5994C20.3071 30.7863 20.3071 31.0901 20.494 31.2769L25.2856 36.0685Z" fill="#0067C5"/>
</svg>
