<svg width="35" height="41" viewBox="0 0 35 41" fill="none" xmlns="http://www.w3.org/2000/svg">
<path fill-rule="evenodd" clip-rule="evenodd" d="M0.25 1C0.25 0.585786 0.585786 0.25 1 0.25H19.0594C19.2583 0.25 19.4491 0.329018 19.5897 0.46967L27.867 8.7469C28.0076 8.88755 28.0866 9.07832 28.0866 9.27723V21.6931H26.5866V10.0272H19.0594C18.6452 10.0272 18.3094 9.69144 18.3094 9.27723V1.75H1.75V34.8639H15.6733V36.3639H1C0.585786 36.3639 0.25 36.0281 0.25 35.6139V1ZM19.8094 2.81066L25.526 8.52723H19.8094V2.81066Z" fill="#0067C5"/>
<path fill-rule="evenodd" clip-rule="evenodd" d="M31.961 26.3119C31.8425 26.7754 31.4413 28.0302 30.4453 28.6039C29.1223 28.3444 27.8398 29.0704 27.563 29.4064C27.3853 29.6232 27.446 29.8159 27.4805 29.8894C27.53 29.9944 27.6605 30.0822 27.7843 30.1137C27.9103 30.2547 28.13 30.8172 28.2613 31.3414C28.2778 31.4074 28.3115 31.4674 28.3603 31.5154C28.7233 31.8784 29.243 31.8147 29.582 31.7157C29.63 32.1162 29.0608 32.7522 28.5013 33.3342C28.0835 33.7662 27.875 33.9844 27.875 34.2499C27.875 34.5612 28.103 34.7599 28.2695 34.9039C28.3243 34.9527 28.4165 35.0344 28.4323 35.0172C28.4323 35.0179 28.4203 35.0487 28.3595 35.1094C27.8735 35.5954 27.3837 35.7679 27.3808 35.7687C27.2278 35.8197 27.1243 35.9637 27.1243 36.1249C27.1243 37.1059 26.5115 37.6099 25.3025 37.6249C25.0498 37.4374 24.5143 36.4002 24.4993 36.1249C24.4993 36.0259 24.575 35.8759 24.647 35.7304C24.7543 35.5167 24.875 35.2759 24.875 34.9999C24.875 34.5784 24.4093 34.0219 24.1213 33.7189C24.0973 33.2554 23.9645 32.9157 23.7178 32.6817C23.2955 32.2842 22.6648 32.3217 22.052 32.3532C21.8713 32.3637 21.686 32.3749 21.5 32.3749C20.7657 32.3749 20.75 31.2949 20.75 31.2499C20.75 31.2267 20.768 28.9287 22.3235 28.6174C23.4073 28.4007 23.7283 28.6032 23.75 28.6249C23.75 28.7247 23.7898 28.8199 23.8595 28.8904C24.5315 29.5624 25.5478 29.3239 26.3638 29.1342C26.6608 29.0652 26.9413 28.9999 27.125 28.9999C27.3118 28.9999 27.47 28.8627 27.4963 28.6774C27.638 27.6822 27.7055 26.4222 27.2173 26.0697C27.0358 25.9384 26.8033 25.9287 26.582 26.0389C26.3113 26.1754 26.0578 26.1979 25.8875 26.1034C25.6985 25.9984 25.6393 25.7667 25.6228 25.5897C25.577 25.1067 27.0837 24.4497 28.5005 24.1392C29.834 24.5652 31.0168 25.3234 31.961 26.3119Z" fill="#0067C5"/>
<path fill-rule="evenodd" clip-rule="evenodd" d="M26 40.25C21.4513 40.25 17.75 36.5487 17.75 32C17.75 27.4513 21.4513 23.75 26 23.75C26.3188 23.75 26.6315 23.7725 26.9412 23.8078C25.916 24.1768 24.7955 24.7835 24.8765 25.6595C24.9237 26.1635 25.1533 26.5535 25.523 26.7597C25.8822 26.9585 26.3383 26.96 26.7965 26.7665C26.8618 27.0335 26.8595 27.6455 26.7898 28.28C26.603 28.3092 26.402 28.3565 26.1935 28.4045C25.565 28.5485 24.8592 28.7143 24.4625 28.4225C24.4212 28.3018 24.3395 28.1712 24.203 28.0595C23.8175 27.7437 23.153 27.6868 22.1765 27.8825C20.0247 28.313 20 31.1308 20 31.25C20 31.898 20.3135 33.125 21.5 33.125C21.7002 33.125 21.9005 33.1137 22.0948 33.1025C22.568 33.0763 23.0157 33.0507 23.2032 33.2277C23.3172 33.335 23.375 33.5525 23.375 33.875C23.375 33.9747 23.4148 34.07 23.4845 34.1405C23.8025 34.4585 24.1085 34.8717 24.125 35C24.125 35.099 24.0493 35.249 23.9773 35.3945C23.8707 35.6082 23.75 35.849 23.75 36.125C23.75 36.506 24.5188 38.375 25.25 38.375C26.8182 38.375 27.7572 37.6505 27.8645 36.3763C28.1082 36.2578 28.5012 36.029 28.8897 35.6405C29.0892 35.441 29.1868 35.231 29.1793 35.0165C29.1673 34.6918 28.9333 34.4878 28.7615 34.3393C28.7315 34.3138 28.6932 34.28 28.6648 34.2613C28.7525 34.1533 28.9145 33.986 29.0405 33.854C29.7448 33.1213 30.9245 31.8958 30.0148 30.986C29.9008 30.8728 29.7267 30.8442 29.582 30.9155C29.4237 30.9935 29.1132 31.0827 28.9535 31.0243C28.769 30.3282 28.5762 29.9262 28.4037 29.6945C28.8132 29.4598 29.6135 29.165 30.4093 29.366C30.4948 29.387 30.5863 29.378 30.668 29.3375C31.7315 28.8057 32.2782 27.7198 32.5378 26.99C33.6073 28.379 34.25 30.1137 34.25 32C34.25 36.5487 30.5487 40.25 26 40.25Z" fill="#0067C5"/>
</svg>
