<svg width="39" height="39" viewBox="0 0 39 39" fill="none" xmlns="http://www.w3.org/2000/svg">
<path d="M22.4455 32.604L34.4851 20.5645L38.6237 24.7031L26.5841 36.7426L20.5643 39L22.4455 32.604Z" fill="#0067C5"/>
<path fill-rule="evenodd" clip-rule="evenodd" d="M26.2306 37.0957L22.0919 32.9571L22.7991 32.25L26.9377 36.3886L26.2306 37.0957Z" fill="white"/>
<path fill-rule="evenodd" clip-rule="evenodd" d="M35.2602 28.0664L31.1216 23.9278L31.8287 23.2207L35.9673 27.3593L35.2602 28.0664Z" fill="white"/>
<path fill-rule="evenodd" clip-rule="evenodd" d="M0.25 1C0.25 0.585786 0.585786 0.25 1 0.25H19.0594C19.2583 0.25 19.449 0.329018 19.5897 0.46967L27.8669 8.74688C28.0075 8.88753 28.0866 9.07829 28.0866 9.27721V21.693H26.5866V10.0272H19.0594C18.6451 10.0272 18.3094 9.69142 18.3094 9.27721V1.75H1.75V34.8638H15.6732V36.3638H1C0.585786 36.3638 0.25 36.028 0.25 35.6138V1ZM19.8094 2.81066L25.5259 8.52721H19.8094V2.81066Z" fill="#0067C5"/>
</svg>
