<svg width="32" height="32" viewBox="0 0 24 24" fill="none" xmlns="http://www.w3.org/2000/svg">
<path fill-rule="evenodd" clip-rule="evenodd" d="M20.961 6.308C20.936 6.247 20.899 6.192 20.853 6.146L14.854 0.147C14.808 0.101 14.753 0.064 14.692 0.039C14.632 0.014 14.567 0 14.5 0H3.5C3.224 0 3 0.224 3 0.5V23.5C3 23.776 3.224 24 3.5 24H20.5C20.776 24 21 23.776 21 23.5V6.5C21 6.433 20.986 6.368 20.961 6.308ZM15 1.707L19.293 6H15V1.707ZM4 1V23H20V7H14.5C14.224 7 14 6.776 14 6.5V1H4ZM6 15C6 11.691 8.691 9 12 9C15.309 9 18 11.691 18 15C18 18.309 15.309 21 12 21C8.691 21 6 18.309 6 15ZM7 15C7 17.757 9.243 20 12 20C14.757 20 17 17.757 17 15C17 12.243 14.757 10 12 10C9.243 10 7 12.243 7 15ZM12 15H13.5C13.776 15 14 15.224 14 15.5C14 15.776 13.776 16 13.5 16H11.5C11.224 16 11 15.776 11 15.5V12.5C11 12.224 11.224 12 11.5 12C11.776 12 12 12.224 12 12.5V15Z" fill="#3E3832"/>
</svg>
