<svg width="35" height="41" viewBox="0 0 35 41" fill="none" xmlns="http://www.w3.org/2000/svg">
<path d="M15.6733 35.6139H1V1H19.0594M19.0594 1L27.3366 9.27723M19.0594 1V9.27723H27.3366M27.3366 9.27723V21.6931" stroke="#3E3832" stroke-width="1.5" stroke-linejoin="round"/>
<path fill-rule="evenodd" clip-rule="evenodd" d="M32.696 26.0075C32.6667 25.9558 32.6285 25.9093 32.5775 25.877C31.511 24.7325 30.1565 23.861 28.6235 23.3923C28.6077 23.3877 28.5943 23.3825 28.5778 23.3803C27.7603 23.1358 26.8955 23 26 23C21.0373 23 17 27.0373 17 32C17 36.9628 21.0373 41 26 41C30.9628 41 35 36.9628 35 32C35 29.6975 34.1232 27.6005 32.696 26.0075ZM31.961 26.312C31.8425 26.7755 31.4413 28.0303 30.4453 28.604C29.1223 28.3445 27.8398 29.0705 27.563 29.4065C27.3853 29.6233 27.446 29.816 27.4805 29.8895C27.53 29.9945 27.6605 30.0823 27.7843 30.1137C27.9103 30.2548 28.13 30.8172 28.2613 31.3415C28.2778 31.4075 28.3115 31.4675 28.3603 31.5155C28.7233 31.8785 29.243 31.8148 29.582 31.7157C29.63 32.1163 29.0608 32.7523 28.5013 33.3343C28.0835 33.7663 27.875 33.9845 27.875 34.25C27.875 34.5612 28.103 34.76 28.2695 34.904C28.3243 34.9528 28.4165 35.0345 28.4323 35.0173C28.4323 35.018 28.4203 35.0487 28.3595 35.1095C27.8735 35.5955 27.3837 35.768 27.3808 35.7688C27.2277 35.8198 27.1243 35.9637 27.1243 36.125C27.1243 37.106 26.5115 37.61 25.3025 37.625C25.0498 37.4375 24.5143 36.4003 24.4993 36.125C24.4993 36.026 24.575 35.876 24.647 35.7305C24.7543 35.5168 24.875 35.276 24.875 35C24.875 34.5785 24.4093 34.022 24.1213 33.719C24.0972 33.2555 23.9645 32.9158 23.7178 32.6818C23.2955 32.2843 22.6648 32.3217 22.052 32.3532C21.8713 32.3637 21.686 32.375 21.5 32.375C20.7657 32.375 20.75 31.295 20.75 31.25C20.75 31.2268 20.768 28.9288 22.3235 28.6175C23.4073 28.4008 23.7283 28.6033 23.75 28.625C23.75 28.7248 23.7898 28.82 23.8595 28.8905C24.5315 29.5625 25.5478 29.324 26.3638 29.1342C26.6608 29.0652 26.9413 29 27.125 29C27.3118 29 27.47 28.8628 27.4963 28.6775C27.638 27.6823 27.7055 26.4223 27.2173 26.0698C27.0358 25.9385 26.8033 25.9288 26.582 26.039C26.3113 26.1755 26.0578 26.198 25.8875 26.1035C25.6985 25.9985 25.6393 25.7668 25.6228 25.5898C25.577 25.1068 27.0837 24.4498 28.5005 24.1393C29.834 24.5653 31.0168 25.3235 31.961 26.312ZM26 40.25C21.4513 40.25 17.75 36.5487 17.75 32C17.75 27.4513 21.4513 23.75 26 23.75C26.3188 23.75 26.6315 23.7725 26.9412 23.8077C25.916 24.1768 24.7955 24.7835 24.8765 25.6595C24.9237 26.1635 25.1533 26.5535 25.523 26.7597C25.8822 26.9585 26.3383 26.96 26.7965 26.7665C26.8618 27.0335 26.8595 27.6455 26.7898 28.28C26.603 28.3092 26.402 28.3565 26.1935 28.4045C25.565 28.5485 24.8593 28.7143 24.4625 28.4225C24.4212 28.3018 24.3395 28.1712 24.203 28.0595C23.8175 27.7437 23.153 27.6867 22.1765 27.8825C20.0247 28.313 20 31.1307 20 31.25C20 31.898 20.3135 33.125 21.5 33.125C21.7003 33.125 21.9005 33.1138 22.0948 33.1025C22.568 33.0763 23.0157 33.0507 23.2032 33.2277C23.3172 33.335 23.375 33.5525 23.375 33.875C23.375 33.9747 23.4148 34.07 23.4845 34.1405C23.8025 34.4585 24.1085 34.8717 24.125 35C24.125 35.099 24.0493 35.249 23.9773 35.3945C23.8708 35.6082 23.75 35.849 23.75 36.125C23.75 36.506 24.5188 38.375 25.25 38.375C26.8182 38.375 27.7572 37.6505 27.8645 36.3763C28.1082 36.2578 28.5012 36.029 28.8897 35.6405C29.0892 35.441 29.1868 35.231 29.1793 35.0165C29.1673 34.6918 28.9333 34.4878 28.7615 34.3393C28.7315 34.3138 28.6933 34.28 28.6648 34.2613C28.7525 34.1533 28.9145 33.986 29.0405 33.854C29.7448 33.1213 30.9245 31.8958 30.0148 30.986C29.9008 30.8727 29.7268 30.8442 29.582 30.9155C29.4237 30.9935 29.1132 31.0828 28.9535 31.0243C28.769 30.3283 28.5763 29.9262 28.4037 29.6945C28.8132 29.4598 29.6135 29.165 30.4093 29.366C30.4948 29.387 30.5863 29.378 30.668 29.3375C31.7315 28.8057 32.2783 27.7197 32.5378 26.99C33.6073 28.379 34.25 30.1137 34.25 32C34.25 36.5487 30.5487 40.25 26 40.25Z" fill="#3E3832"/>
</svg>
