<svg width="70" height="70" viewBox="0 0 70 70" xmlns="http://www.w3.org/2000/svg"><g fill="none" fill-rule="evenodd"><circle cx="35" cy="35" r="35" fill="#EAE8E2"/><circle cx="16.625" cy="16.625" r="16.625" transform="translate(18.375 18.375)" fill="#FFF"/><path d="M34.999 14.876c-11.096 0-20.122 9.028-20.122 20.122 0 11.093 9.026 20.121 20.122 20.121 11.093 0 20.121-9.028 20.121-20.121 0-11.094-9.028-20.122-20.121-20.122" fill="#EAE8E2"/><path d="M43.954 29.743L31.378 41.48a.841.841 0 0 1-1.163-.02l-4.192-4.192a.836.836 0 0 1 0-1.185.836.836 0 0 1 1.185 0l3.619 3.618L42.81 28.517a.839.839 0 1 1 1.143 1.226M35 14.876c-11.096 0-20.122 9.028-20.122 20.122 0 11.093 9.026 20.121 20.122 20.121 11.093 0 20.121-9.028 20.121-20.121 0-11.094-9.028-20.122-20.121-20.122" fill="#EAE8E2"/><path stroke="#97AB48" stroke-width="4" stroke-linecap="round" stroke-linejoin="round" d="M46 29L30.25 44 25 38.643"/></g></svg>