<svg width="16" height="16" viewBox="0 0 16 16" fill="none" xmlns="http://www.w3.org/2000/svg">
    <path fill-rule="evenodd" clip-rule="evenodd" d="M12.9905 4.74343C13.8216 3.96306 13.8216 2.69783 12.9905 1.91746C12.1892 1.16496 10.9077 1.13808 10.0721 1.83683L9.9811 1.91746L2.45747 8.9824L2.351 9.08673C1.07336 10.3934 1.10885 12.426 2.45747 13.6924C3.80608 14.9588 5.97056 14.9921 7.36212 13.7923L7.47322 13.6924L14.9968 6.62742L16 7.56941L8.47637 14.6343L8.35363 14.7458C6.40681 16.4544 3.353 16.4173 1.45432 14.6343C-0.444374 12.8514 -0.48393 9.98379 1.33565 8.15566L1.45432 8.04041L8.97795 0.975465C10.363 -0.325155 12.6086 -0.325155 13.9937 0.975465C15.3423 2.24186 15.3778 4.27438 14.1002 5.58109L13.9937 5.68542L6.47007 12.7504L6.3791 12.831C5.54345 13.5297 4.26197 13.5029 3.46062 12.7504C2.65926 11.9979 2.63064 10.7945 3.37476 10.0098L3.46062 9.92439L10.9842 2.85945L11.9874 3.80144L4.46377 10.8664L4.40865 10.9245C4.18817 11.1859 4.20654 11.5668 4.46377 11.8084C4.72099 12.0499 5.12662 12.0672 5.40505 11.8601L5.46692 11.8084L12.9905 4.74343Z" fill="#0067C5"/>
</svg>
