<svg version="1.1" id="Layer_1" xmlns="http://www.w3.org/2000/svg" x="0px" y="0px"
	 viewBox="0 0 16 16" style="enable-background:new 0 0 16 16;" xml:space="preserve">
    <path class="st0" fill-rule="evenodd" clip-rule="evenodd" fill="#0067C5" d="M11.3,6.7v-3c0-0.1,0-0.2-0.1-0.2L7.9,0.1C7.8,0,7.8,0,7.7,0H0.3C0.1,0,0,0.1,0,0.3v14c0,0.2,0.1,0.3,0.3,0.3
        h7.3c-0.6-0.8-1-1.9-1-3C6.7,9,8.7,6.9,11.3,6.7z M7.7,0.3L11,3.7H7.7V0.3z M11.7,7.3c-2.4,0-4.3,1.9-4.3,4.3c0,2.4,1.9,4.3,4.3,4.3
        c2.4,0,4.3-1.9,4.3-4.3C16,9.3,14.1,7.3,11.7,7.3z M13.4,11.5c-0.1,0.1-0.2,0.1-0.2,0.1c-0.1,0-0.2,0-0.2-0.1L12,10.7v2.8
        c0,0.2-0.1,0.3-0.3,0.3s-0.3-0.1-0.3-0.3v-2.8l-0.9,0.9c-0.1,0.1-0.3,0.1-0.5,0s-0.1-0.3,0-0.5l1.5-1.5c0.1-0.1,0.1-0.1,0.2-0.1
        c0.1,0,0.2,0,0.2,0.1l1.5,1.5C13.5,11.2,13.5,11.4,13.4,11.5z"/>
</svg>
