<svg width="16px" height="16px" viewBox="0 0 16 16" version="1.1" xmlns="http://www.w3.org/2000/svg">
    <g id="Page-1-(med-SP-og-BT)" stroke="none" stroke-width="1" fill="none" fill-rule="evenodd">
        <g id="steg-(7)-oppsummering-copy" transform="translate(-539.000000, -2302.000000)" fill="#0067C5">
            <g id="Fill/16-transfers/upload-1" transform="translate(539.000000, 2302.000000)">
                <path d="M15.3333334,11.1453333 C15.7013334,11.1453333 16,11.444 16,11.812 L16,13.0873334 C16,14.462 14.8966667,16 13.42,16 L2.57933331,16 C1.10266664,16 -3.33333231e-08,14.462 -3.33333231e-08,13.0873334 L-3.33333231e-08,11.812 C-3.33333231e-08,11.444 0.297999968,11.1453333 0.666666636,11.1453333 C1.03466664,11.1453333 1.33333331,11.444 1.33333331,11.812 L1.33333331,13.0873334 C1.33333331,13.7833334 1.91999997,14.6666667 2.57933331,14.6666667 L13.42,14.6666667 C14.0793334,14.6666667 14.6666667,13.7833334 14.6666667,13.0873334 L14.6666667,11.812 C14.6666667,11.444 14.9646667,11.1453333 15.3333334,11.1453333 Z M3.47133331,5.80533332 C3.21066665,6.06599999 2.78866664,6.06599999 2.52866664,5.80533332 C2.26799998,5.54399999 2.26799998,5.12266665 2.52866664,4.86266665 L7.19466666,0.195999967 C7.43466666,-0.0493333669 7.86666667,-0.075333367 8.138,0.195999967 L12.8046667,4.86266665 C13.0653334,5.12266665 13.0653334,5.54399999 12.8046667,5.80533332 C12.6746667,5.93533332 12.504,5.99999999 12.3333334,5.99999999 C12.1626667,5.99999999 11.9913333,5.93533332 11.862,5.80533332 L8.33333333,2.27666664 L8.33333333,11.7393333 C8.33333333,12.108 8.03466667,12.406 7.66666667,12.406 C7.298,12.406 7,12.108 7,11.7393333 L7,2.27666664 L3.47133331,5.80533332 Z" id="Combined-Shape"></path>
            </g>
        </g>
    </g>
</svg>
