<?xml version="1.0" encoding="UTF-8"?>
<svg version="1.1" width="24px" height="22px" viewBox="0 0 24 22" xmlns="http://www.w3.org/2000/svg" xmlns:xlink="http://www.w3.org/1999/xlink">
<title>Outline/01-Edition/paperclip-1 Copy</title>
<desc>Created with Sketch.</desc>
<defs>
<path id="a" d="m22.038 3.039c-1.133-1.134-2.64-1.758-4.242-1.758-1.603 0-3.11 0.625-4.243 1.758l-12 12c-1.753 1.754-1.753 4.609 0 6.364 0.877 0.877 2.03 1.315 3.182 1.315 1.152 0 2.305-0.439 3.183-1.316l11.482-11.519c0.974-0.976 0.974-2.561 0-3.535-0.944-0.944-2.592-0.944-3.535 0l-8.501 8.5c-0.195 0.195-0.195 0.512 0 0.707s0.512 0.195 0.707 0l8.501-8.5c0.565-0.567 1.554-0.566 2.121 0 0.584 0.584 0.584 1.536 0 2.121l-11.483 11.519c-1.364 1.365-3.584 1.365-4.95 0-1.364-1.365-1.364-3.585 0-4.95l12-12c0.945-0.945 2.201-1.465 3.536-1.465s2.591 0.521 3.535 1.465c0.945 0.944 1.465 2.2 1.465 3.535s-0.52 2.591-1.465 3.535l-8.5 8.5c-0.195 0.195-0.195 0.512 0 0.707s0.512 0.195 0.707 0l8.5-8.5c1.133-1.133 1.758-2.639 1.758-4.242 0-1.602-0.625-3.109-1.758-4.241z"/>
</defs>
<g fill="none" fill-rule="evenodd">
<g transform="translate(-353 -2160)">
<g transform="translate(353 2159)" fill="#3E3832">
<mask id="b" fill="white">
<use xlink:href="#a"/>
</mask>
<use fill-rule="nonzero" xlink:href="#a"/>
<rect width="24" height="24" fill-rule="evenodd" mask="url(#b)"/>
</g>
</g>
</g>
</svg>
