<svg width="100" height="100" viewBox="0 0 100 100" xmlns="http://www.w3.org/2000/svg" xmlns:xlink="http://www.w3.org/1999/xlink"><defs><circle id="a" cx="50" cy="50" r="50"/></defs><g fill="none" fill-rule="evenodd"><mask id="b" fill="#fff"><use xlink:href="#a"/></mask><use fill="#A4DFF7" xlink:href="#a"/><g mask="url(#b)"><path d="M71.198 67.779c0 1.63-1.34 2.951-2.993 2.951H25.056c-1.653 0-2.992-1.32-2.992-2.951 0-1.628 1.34-2.95 2.992-2.95h43.15c1.652 0 2.992 1.322 2.992 2.95zM74.913 61.303c0 1.628-1.338 2.95-2.993 2.95H28.775c-1.655 0-2.992-1.322-2.992-2.95 0-1.63 1.337-2.951 2.992-2.951H71.92c1.655 0 2.993 1.32 2.993 2.951M77.618 54.822c0 1.63-1.342 2.951-2.994 2.951h-43.15c-1.652 0-2.99-1.321-2.99-2.95 0-1.63 1.338-2.952 2.99-2.952h43.15c1.652 0 2.994 1.322 2.994 2.951M74.082 48.342c0 1.63-1.341 2.952-2.994 2.952H39.917c-1.655 0-2.993-1.322-2.993-2.952s1.338-2.951 2.993-2.951h31.17c1.654 0 2.995 1.32 2.995 2.951" fill="#CCC8C4"/><path d="M16.817 67.39h3.718c1.018 0 1.865 1.746 1.865 1.746l29.864-3.635v-17.16l-9.806-2.95s-.224-.723.9-1.445c1.132-.723 6.43-2.89 6.43-2.89s6.252-2.886 5.126-5.557c-1.127-2.662-5.24-1.442-5.24-1.442s-6.486 1.359-9.58 2.113c-3.914.95-7.892 3.165-10.825 4.999-2.928 1.833-7.206 5.332-7.206 6.554l-5.246.279V67.39z" fill="#CCC8C4"/><path fill="#8E9738" d="M-26 70.9h42.817V44.647H-26z"/><g><path d="M70.175 76.952H46.698c-2.042 0-3.698-1.61-3.698-3.596V28.184c0-1.987 1.656-3.596 3.698-3.596h23.477c2.042 0 3.698 1.61 3.698 3.596v45.172c0 1.986-1.656 3.596-3.698 3.596z" fill="#B5B9C1"/><path fill="#FFF" d="M45.303 69.37H71.57V30.801H45.303z"/><path d="M60.674 73.04c0 1.212-1.002 2.195-2.238 2.195s-2.238-.983-2.238-2.194c0-1.212 1.002-2.194 2.238-2.194s2.238.982 2.238 2.194" fill="#657585"/></g><path d="M17 68.27h3.695c1.012 0 1.854 1.73 1.854 1.73l19.104-4.263-.363-14.843 1.195-4.4s-.223-.715.895-1.43c1.125-.715 6.39-2.86 6.39-2.86s6.214-2.856 5.095-5.5c-1.12-2.636-5.208-1.428-5.208-1.428s-6.447 1.345-9.522 2.091c-3.89.942-7.843 3.134-10.758 4.949-2.91 1.814-7.162 5.278-7.162 6.488L17 49.08v19.19z" fill="#CCC8C4"/><g fill="#A59D96"><path d="M51.979 46.53H67v-1.92H51.979zM51.979 51.771h13.688v-1.748H51.979zM51.979 57.183h13.688v-1.749H51.979zM51.979 61.667h6.42v-.82h-6.42zM49.587 43.633H47V46.5H49.587v-2.867zm-2.023 2.222h1.458v-1.577h-1.458v1.577zM49.587 49.044H47v2.867H49.587v-2.867zm-2.023 2.222h1.458v-1.577h-1.458v1.577zM49.587 54.456H47v2.867H49.587v-2.867zm-2.023 2.221h1.458v-1.576h-1.458v1.576zM49.587 59.868H47v2.867H49.587v-2.867zm-2.023 2.222h1.458v-1.577h-1.458v1.577z"/></g></g></g></svg>