<svg width="16" height="16" viewBox="0 0 16 16" fill="none" xmlns="http://www.w3.org/2000/svg">
    <path fill-rule="evenodd" clip-rule="evenodd" d="M13.4127 2.11467L8 7.528L2.58733 2.11533C4.01267 0.802667 5.914 0 8 0C10.086 0 11.9873 0.802667 13.4127 2.11467ZM7.52867 8L2.116 13.4127C0.803333 11.9867 0 10.0853 0 8C0 5.914 0.803333 4.012 2.116 2.586L7.52867 8ZM2.58733 13.884L8 8.47133L13.4127 13.884C11.9873 15.196 10.086 16 8 16C5.914 16 4.01267 15.196 2.58733 13.884ZM8.47133 8L13.8847 13.4127C15.1967 11.9867 16 10.0853 16 8C16 5.914 15.1967 4.012 13.8847 2.586L8.47133 8Z" fill="#BA3A26"/>
</svg>
