<svg width="31" height="31" viewBox="0 0 31 31" xmlns="http://www.w3.org/2000/svg"><g fill="#0067C5" fill-rule="evenodd"><path d="M22.039 20.218v-.003l-4.48 4.48 4.105 4.105 4.81-4.808 1.327-1.33-4.105-4.105zM15.966 24.477l6.073-6.07V7.04a.645.645 0 0 0-.187-.453l-6.4-6.4A.645.645 0 0 0 14.999 0H.919a.64.64 0 0 0-.64.64v26.88c0 .352.288.64.64.64H14.83l.973-3.405a.632.632 0 0 1 .162-.278zM15 .64l6.4 6.4h-6.4V.64zM30.813 18.747l-3.2-3.2a.64.64 0 0 0-.905 0l-2.107 2.105 4.105 4.105 2.107-2.105a.64.64 0 0 0 0-.905zM16.161 28.16l-.498 1.745a.632.632 0 0 0 .163.627.628.628 0 0 0 .453.188.678.678 0 0 0 .174-.023l4.12-1.178-3.732-3.732-.68 2.373z"/></g></svg>
