<svg width="32" height="32" viewBox="0 0 32 32" xmlns="http://www.w3.org/2000/svg"><path d="M28.187 5.65c-.627 1.774-1.902 4.62-3.888 5.613a.67.67 0 0 1-.46.05c-1.41-.353-2.836.168-3.566.584.307.415.65 1.13.978 2.366.284.1.837-.051 1.116-.194a.663.663 0 0 1 .77.126c1.618 1.617-.478 3.797-1.732 5.098-.221.231-.504.524-.661.715.053.05.116.105.165.148.304.265.722.628.743 1.203.013.382-.16.756-.515 1.11a6.843 6.843 0 0 1-1.822 1.308c-.191 2.271-1.862 3.556-4.648 3.556-1.302 0-2.667-3.324-2.667-4 0-.49.213-.92.404-1.298.128-.258.263-.526.263-.702-.031-.228-.574-.962-1.139-1.528a.671.671 0 0 1-.195-.472c0-.573-.102-.96-.305-1.15-.335-.316-1.132-.27-1.97-.223-.346.019-.702.04-1.058.04-2.11 0-2.667-2.181-2.667-3.333 0-.212.044-5.223 3.868-5.987 1.744-.35 2.92-.247 3.604.315.242.197.387.43.462.644.701.52 1.96.226 3.078-.034.37-.085.728-.169 1.06-.218.124-1.128.128-2.218.012-2.692-.817.344-1.629.341-2.264-.012-.657-.366-1.066-1.06-1.149-1.956-.179-1.918 3.521-3.41 6.063-4.203A16.06 16.06 0 0 0 16 0C7.177 0 0 7.179 0 16s7.177 16 16 16c8.821 0 16-7.179 16-16 0-3.945-1.439-7.559-3.813-10.35z" fill="#0067C5" fill-rule="nonzero"/></svg>