<svg width="32" height="32" viewBox="0 0 32 32" xmlns="http://www.w3.org/2000/svg"><g stroke="#3E3832" fill="none" fill-rule="evenodd" stroke-linecap="round" stroke-linejoin="round"><circle cx="16" cy="16" r="15.333"/><path d="M27.333 5.675S26.667 9.333 24 10.667C21.333 10 18.667 12 19.333 12l1.334 2.667c.666.666 2 0 2 0C24.333 16.333 20 19.333 20 20c0 .667 1.667 1 .667 2l-2 1.333c0 3.334-3.334 3.334-4 3.334-.667 0-2-2.667-2-3.334 0-.666.666-1.333.666-2l-1.333-2c0-2.666-2-2-4-2l-2-2.666S6 10 9.333 9.333l3.334.667c1.333 1.333 4 0 5.333 0 0 0 .667-4.667-.667-4-1.333.667-2.528.15-2.666-1.333-.195-2.083 5.817-3.334 5.817-3.334"/></g></svg>