<svg width="16" height="16" viewBox="0 0 16 16" fill="none" xmlns="http://www.w3.org/2000/svg">
    <path fill-rule="evenodd" clip-rule="evenodd" d="M7.66602 0C3.44668 0 0.00801505 3.432 1.50525e-05 7.65133C-0.00398495 9.69933 0.789348 11.626 2.23468 13.0773C3.68002 14.528 5.60402 15.3293 7.65202 15.3333H7.66668C11.8853 15.3333 15.3247 11.9007 15.3333 7.68067C15.3413 3.454 11.9087 0.008 7.66602 0ZM10.7254 10.2653C10.8547 10.3953 10.854 10.6067 10.724 10.7367C10.6587 10.802 10.574 10.834 10.4887 10.834C10.404 10.834 10.318 10.8013 10.2527 10.7367L7.66469 8.138L5.06736 10.726C5.00202 10.7913 4.91669 10.8233 4.83136 10.8233C4.74602 10.8233 4.66136 10.7907 4.59602 10.726C4.46602 10.5953 4.46602 10.384 4.59669 10.2547L7.19469 7.66667L4.60669 5.068C4.47669 4.93733 4.47736 4.72667 4.60802 4.59733C4.73802 4.466 4.94936 4.46667 5.07936 4.598L7.66669 7.196L10.264 4.60867C10.394 4.47867 10.606 4.47867 10.7354 4.60933C10.8654 4.73933 10.8654 4.95067 10.7347 5.08067L8.13735 7.66867L10.7254 10.2653Z" fill="#0067C5"/>
</svg>
