<svg width="30" height="30" viewBox="0 0 30 30" xmlns="http://www.w3.org/2000/svg"><g fill="none" fill-rule="evenodd"><path d="M12.362 2.64a6.877 6.877 0 0 0-9.723 0 6.874 6.874 0 0 0 0 9.723l15 15a6.876 6.876 0 0 0 9.723-9.723l-15-15h0z" stroke="#3E3832" stroke-linecap="round" stroke-linejoin="round"/><path stroke="#3E3832" stroke-linecap="round" stroke-linejoin="round" d="M22.955 13.234l-9.72 9.723-6.19-6.188 9.725-9.724z"/><path d="M5.278 9.957a.627.627 0 1 0 0 0M7.93 7.305a.625.625 0 1 0 .441.184.619.619 0 0 0-.441-.184M4.836 6.863a.627.627 0 1 0 .442 1.067.625.625 0 0 0-.442-1.067M7.488 4.213a.624.624 0 1 0 0 1.25.624.624 0 1 0 0-1.25M8.372 10.397c-.16 0-.32.063-.442.185a.623.623 0 0 0 .442 1.067.625.625 0 0 0 0-1.252M11.023 7.748a.624.624 0 1 0 0 1.25.62.62 0 0 0 .443-.185.622.622 0 0 0-.443-1.065M10.581 4.652a.628.628 0 0 0 0 1.253.628.628 0 0 0 .443-1.07.628.628 0 0 0-.443-.183M19.42 24.1a.627.627 0 0 0-.442 1.067c.122.122.282.18.442.18.16 0 .32-.058.443-.18a.627.627 0 0 0-.443-1.067M22.072 21.447a.622.622 0 0 0-.441 1.067.624.624 0 0 0 .884 0 .627.627 0 0 0-.444-1.067" fill="#000"/><path d="M22.513 24.54a.627.627 0 1 0 .442 1.067.625.625 0 0 0-.442-1.067M25.166 21.89a.625.625 0 1 0 0 1.25.625.625 0 0 0 0-1.25M18.978 21.005a.625.625 0 1 0 0 1.25.625.625 0 0 0 0-1.25M21.63 18.353a.627.627 0 0 0 0 1.25.622.622 0 0 0 .441-1.067.623.623 0 0 0-.441-.183M24.724 18.795a.627.627 0 0 0 0 1.25.62.62 0 0 0 .44-.182.622.622 0 0 0 0-.885.62.62 0 0 0-.44-.183" fill="#3E3832"/></g></svg>